<svg xmlns="http://www.w3.org/2000/svg" viewBox="0 0 820 400" font-family="'Noto Sans KR','Apple SD Gothic Neo','Malgun Gothic',sans-serif">
  <defs>
    <marker id="ar" viewBox="0 0 10 10" refX="9" refY="5" markerWidth="8" markerHeight="8" orient="auto"><path d="M0,0 L10,5 L0,10 z" fill="#475569"/></marker>
    <marker id="arP" viewBox="0 0 10 10" refX="9" refY="5" markerWidth="8" markerHeight="8" orient="auto"><path d="M0,0 L10,5 L0,10 z" fill="#7c3aed"/></marker>
  </defs>
  <rect width="820" height="400" rx="14" fill="#ffffff"/>
  <text x="24" y="36" font-size="20" font-weight="700" fill="#0f172a">같은 입력, 세 갈래</text>

  <g font-size="15" text-anchor="middle" fill="#0f172a">
    <rect x="20" y="160" width="170" height="100" rx="10" fill="#f8fafc" stroke="#475569" stroke-width="2"/>
    <text x="105" y="190" font-weight="700">입력 253개</text><text x="105" y="214" font-size="14">TFT 6개 × 곡선 42점</text><text x="105" y="236" font-size="14">+ Vdata</text>

    <text x="240" y="78" text-anchor="start" font-size="14" fill="#2563eb" font-weight="700">기존</text>
    <rect x="260" y="88" width="160" height="56" rx="10" fill="#eff6ff" stroke="#2563eb" stroke-width="2"/><text x="340" y="121">카드 추출</text>
    <rect x="460" y="88" width="160" height="56" rx="10" fill="#eff6ff" stroke="#2563eb" stroke-width="2"/><text x="540" y="121">ngspice 6T1C</text>
    <rect x="660" y="88" width="140" height="56" rx="10" fill="#eff6ff" stroke="#2563eb" stroke-width="2.5"/><text x="730" y="121" font-weight="700">I_conv</text>

    <text x="240" y="196" text-anchor="start" font-size="14" fill="#ea580c" font-weight="700">AI 단독</text>
    <rect x="260" y="206" width="160" height="56" rx="10" fill="#fff7ed" stroke="#ea580c" stroke-width="2"/><text x="340" y="239">GBM / MLP</text>
    <rect x="660" y="206" width="140" height="56" rx="10" fill="#fff7ed" stroke="#ea580c" stroke-width="2.5"/><text x="730" y="239" font-weight="700">I_AI</text>

    <text x="440" y="314" text-anchor="start" font-size="14" fill="#7c3aed" font-weight="700">Hybrid</text>
    <rect x="460" y="324" width="160" height="56" rx="10" fill="#f5f3ff" stroke="#7c3aed" stroke-width="2"/><text x="540" y="357">GBM: 잔차만</text>
    <rect x="660" y="324" width="140" height="56" rx="10" fill="#f5f3ff" stroke="#7c3aed" stroke-width="2.5"/><text x="730" y="357" font-weight="700">I_conv × 보정</text>
  </g>
  <g stroke="#475569" stroke-width="2" fill="none" marker-end="url(#ar)">
    <path d="M190,190 L256,122"/><line x1="190" y1="225" x2="256" y2="232"/><path d="M190,250 C300,352 380,352 456,352"/>
    <line x1="420" y1="116" x2="456" y2="116"/><line x1="620" y1="116" x2="656" y2="116"/>
    <line x1="420" y1="234" x2="656" y2="234"/><line x1="620" y1="352" x2="656" y2="352"/>
  </g>
  <line x1="540" y1="144" x2="540" y2="320" stroke="#7c3aed" stroke-width="2.5" stroke-dasharray="7 5" marker-end="url(#arP)"/>
  <text x="552" y="290" font-size="14" fill="#7c3aed">I_conv도 입력</text>
</svg>
